<svg data-name="Calque 1" xmlns="http://www.w3.org/2000/svg" xmlns:xlink="http://www.w3.org/1999/xlink" viewBox="0 0 1862.51 939.41"><defs><linearGradient id="a" x1="283.08" y1="784.86" x2="283.08" y2="112.68" gradientUnits="userSpaceOnUse"><stop offset="0" stop-color="#e64750"/><stop offset="1" stop-color="#fe922d"/></linearGradient><linearGradient id="b" x1="1201.14" y1="480.23" x2="1201.14" y2="438.27" xlink:href="#a"/><linearGradient id="c" x1="776.54" y1="490.91" x2="776.54" y2="454.21" xlink:href="#a"/><linearGradient id="d" x1="270.72" y1="490.91" x2="270.72" y2="454.21" xlink:href="#a"/><linearGradient id="e" x1="1222.33" y1="927.63" x2="1222.33" y2="229.04" xlink:href="#a"/></defs><path d="M529.8 780.35l.16-.05-7.66-22.37-7.8-22.31-16.17-44.43-16.94-44.12-17.64-43.84-18.27-43.57-18.9-43.27-19.57-43-20.12-42.69-20.81-42.33-21.34-42.05-22-41.67-22.59-41.34-23.2-41-1.05-1.78 16.58-43 8-20.42q14.79-30.61 28.7-61.65a3.52 3.52 0 00-2.13-4.81l.15-.38-.21.36a2.82 2.82 0 00-3.48 1.52q-16.81 31-32.19 62.71l-9.61 17.74-9.11 17.54c.12-12.66-2.48-25.32-3.84-37.86-1.7-15.59-2.88-31.24-4.07-46.88a3.49 3.49 0 00-.22-.94c-.09-3.39-.21-6.79-.27-10.19s-5.85-4.66-6.45-.87c0 .29-.08.58-.12.87a79.63 79.63 0 00-.72 13.18c-4.4 21.47-.38 45.33 1.05 67.06a3.43 3.43 0 000 1.1c0 .09 0 .17.05.26 0 .29 0 .59.05.88a3.49 3.49 0 00.35 1.35 124 124 0 011.83 15.12c-1.51-4.18-4.39-7.48-7-11.13l-.19-.32-2.89-4.74c-4.06-7.42-7.2-15.44-11.18-22.91q-6.78-12.67-14.61-24.74c-2.21-3.39-4.77-6.73-7.24-10.14q-4.38-8.19-8.88-16.33a3.25 3.25 0 00-4.83-.87l-.08-.12.07.13a3 3 0 00-1.17 3.39c1.72 5.62 4.79 10.34 8.08 15q7.86 14.6 15.27 29.41l17 37.38L257.23 220 239 256.51 218.58 299l-19.8 42.77-19.13 43.09-18.58 43.36-17.87 43.65-17.31 43.92L109.26 560l-16 44.45L78 649.14l-14.62 45-13.84 45.2L42.86 762l-6.49 22.74h.08c-2.72 6.4 7.64 11.32 12.21 13.77a47.94 47.94 0 0020.13 5.94c9.22 2.92 18.64 3.67 27-3a3.21 3.21 0 00.66-4l5-19.56 5.55-22.66 11.77-45 12.08-45 12.49-44.89 12.92-44.78 13.37-44.68 13.77-44.59 14.29-44.45 14.67-44.36 15.18-44.21 15.57-44.11 16-44 8.26-22 13 29.9 18.29 43.09 17.84 43.24 17.46 43.36 17 43.54 16.58 43.64 16.07 43.81 15.68 43.93 15.23 44.05 14.8 44.18 14.41 44.29 14.09 44.37 6.78 22.26 6.23 20a4 4 0 00.47 1.52l.23.72.21-.07a3.45 3.45 0 003.39 1.25c17.29-3 40.56-3.18 54-16a3.29 3.29 0 00.67-3.89z" transform="translate(-36 -90.29)" fill="url(#a)"/><path d="M1213.22 476.11a17.15 17.15 0 0010.23-14.78 17.86 17.86 0 00-.4-5 24.79 24.79 0 00-5-15.8l-3 4.92a14.73 14.73 0 00-6.83-1.81 17.15 17.15 0 00-7.18 1.49 21.15 21.15 0 00-13.83 3.9 21.59 21.59 0 00-7.12 24.39c8.41 8.7 23.4 9.77 33.13 2.69z" transform="translate(-36 -90.29)" fill="url(#b)"/><path d="M760.24 482.89a8.23 8.23 0 003.44 4c11.12 11.2 34.39-.29 32.26-15.92s-27.61-20.48-35.33-6.72l1.71 1.13a16.68 16.68 0 00-5.32 11.93 6.76 6.76 0 003.24 5.58z" transform="translate(-36 -90.29)" fill="url(#c)"/><path d="M254.79 464.26l1.72 1.13a16.73 16.73 0 00-5.33 11.92 6.79 6.79 0 003.25 5.58 8.18 8.18 0 003.44 4c11.11 11.2 34.38-.29 32.26-15.92s-27.62-20.47-35.34-6.71z" transform="translate(-36 -90.29)" fill="url(#d)"/><path d="M1892.85 817c-40.08 19.89-85.06 24.59-129.31 24.68a261.28 261.28 0 01-27.63-4.39 271.25 271.25 0 01-38.55-11.34 263.54 263.54 0 01-36.22-16.7 249.27 249.27 0 01-32.87-22 228.58 228.58 0 01-28.65-26.67 206.51 206.51 0 01-23.25-31c-6.85-11.1-13-22.87-18.91-35-11.83-24.36-22.68-50.39-37.79-75.81-1.92-3.17-3.78-6.35-5.87-9.47l-3.06-4.69-3.31-4.7a195.66 195.66 0 00-14.46-17.7 168.68 168.68 0 00-35-29.51 131.59 131.59 0 00-41.88-17.27 5.72 5.72 0 01-2.33-4.12q36.65-33.56 75-65.18l121.18-92.53c13-8.51 25.55-17.83 38.25-26.87a4.15 4.15 0 00.32-.27l1.25-.55c4.39-1.78 2.47-9-2-7.19-18.64 7.58-35.36 18.38-52.42 28.91a3.76 3.76 0 00-1.59.43 189.15 189.15 0 00-17.31 10.26c-8.82 4.71-17.57 9.51-26.22 14.51a773.94 773.94 0 00-103.48 63.09 643.14 643.14 0 00-53.29 36.62q.6-7 1.27-13.9c3.62-37.91 8.92-75.64 15.63-113.09s15-74.6 24.64-111.36 21-73.07 33.51-108.92c0-.11.09-.22.13-.33h-.11a2.87 2.87 0 000-.66c-1-20.44-38.75-31.5-52.77-18.6a3.76 3.76 0 00-.78 1l-.25-.09-.12.35c-12.91 37.31-23.94 75.25-33.42 113.54s-17.28 77.24-23.38 116.31-10.38 78.39-13.1 117.8-3.54 78.91-2.8 118.36l.6 28.89c.12 9.32 0 18.5-.49 27.47-1 17.89-3.74 35.26-9.78 49.53a62.72 62.72 0 01-11.5 18.36 52.14 52.14 0 01-7.73 6.67l-2.13 1.43-2.26 1.28a21.73 21.73 0 01-2.24 1.16 19 19 0 01-2.25 1 44 44 0 01-19.77 3.25 61.78 61.78 0 01-21.46-5.53 91.78 91.78 0 01-42.92-41.21c-.92-1.8-1.76-3.63-2.53-5.47l-1.13-2.8-1.06-3c-.13-.38-.23-.76-.36-1.14 1.17-3.17 2.29-6.35 3.31-9.55a229.38 229.38 0 0010.62-65.24 208.18 208.18 0 00-8.91-64.72 178.6 178.6 0 00-8.29-31.71c-1.32-3.65-7.84-3.49-7.33 1 .24 2.08.4 4.14.5 6.2-.93 4.61-1.94 9.24-2.5 13.89a39.83 39.83 0 00-.26 4.22 78.42 78.42 0 00-1.46 8c-5.73 17.88-11.28 36.07-15.29 55-4.21 19.63-6.74 40.19-5.64 61.37a160.07 160.07 0 005 31.74l.78 2.81a170 170 0 01-15 23.43q-1.59 2.07-3.26 4.08c-8.06 8.34-16.21 17-27.4 20.74-9.17 3.07-24.73 5.51-34.93 2.32.24-.45.49-.9.71-1.35a162 162 0 0012.21-33.29 132.53 132.53 0 003.16-17.83c.2-1.51.3-3.07.4-4.63s.22-3.17.23-4.54c.1-2.86.11-5.73.1-8.59a217.62 217.62 0 00-3-34.17c-3.87-22.58-11.37-44.82-23.45-65a150.76 150.76 0 00-21.63-28 132.8 132.8 0 00-13.49-12.02 111.52 111.52 0 00-15.32-10.16 129.63 129.63 0 00-33.75-12.47 135.17 135.17 0 00-35.49-3.2 109.48 109.48 0 00-35.89 7.43 86.52 86.52 0 00-16.89 9l-3.92 2.89-3.76 3.16-3.56 3.4-3.06 3.26a126.3 126.3 0 00-14.24 18.85Q892 541 889.48 532.8h-.55c0-.06 0-.13-.08-.18a5.08 5.08 0 00-.61-.86 4.26 4.26 0 00-3.24-4.16 4.54 4.54 0 00-4.19 1.3 16.77 16.77 0 01-2 3.55 3.87 3.87 0 00-.11.89h-.62c-.1 1.29-.18 2.57-.24 3.86-.77 9.47-1.21 18.9-1.4 28.31q-.35 15.72 0 31.37c0 2.25.12 4.49.18 6.74a142.48 142.48 0 00.25 25.64q.5 4.57 1.24 9.1.62 10.47 1.41 20.92c.76 10.37 1.8 20.72 2.79 31.07q1 9.3 2.09 18.62c-.19.37-.36.76-.55 1.13a53.31 53.31 0 01-16.22 18.51c-1.71 1-3.45 2.06-5.17 3l-2.77 1.39-2.69 1.05a42.37 42.37 0 01-11.48 2.27c-15.86 1-33-6.75-46.16-18.57a88 88 0 01-8.29-8.54 102 102 0 004-11.46l1.87-6.93c.59-2.31 1-4.66 1.48-7l.7-3.49.49-3.51c.31-2.34.7-4.68.93-7 .39-4.68.83-9.36.87-14 .23-4.67 0-9.27 0-13.89-.3-4.57-.47-9.17-1-13.68-.83-9.08-2.24-18-3.85-26.78-2.67-14.36-6.09-28.35-9.66-42.15q-2.57-24.49-6.9-48.76c-.75-4.16-7.46-3.17-7.33 1l.12 3.65c-.05.09-.11.17-.16.28l-.32.78v.06a90 90 0 00-6.14 21.24l-3.89 12.12c-6.36 19.83-12.37 40.24-16.11 61.69a207.36 207.36 0 00-3.25 32.92 151.6 151.6 0 003 33.89l.88 4.23c.33 1.4.75 2.79 1.13 4.19.78 2.79 1.48 5.54 2.57 8.45a101.86 101.86 0 006.72 14.88 93 93 0 01-22.3 23.15c-11.85 8.65-25.7 14-38.68 14.1a44.56 44.56 0 01-9.5-.88 41.8 41.8 0 01-9-2.77c-1.45-.53-2.89-1.4-4.35-2.07-1.37-.87-2.83-1.56-4.11-2.53a48.9 48.9 0 01-7.4-6.09c-9.18-9-15.32-22.23-19.06-36.89s-5.28-30.71-5.66-47c-.19-8.14 0-16.4.27-24.7l1-25.92 2-51.87 4.07-103.74 1.24-31.49 50.09-14c11.12-3.14 22-6.11 33.38-9.42a285.24 285.24 0 0033.52-11.89 144.88 144.88 0 0022.71-12.4c12.51-6.81 25.14-18.1 31-30 1.6-3.23-1.72-7.09-5.11-5.11a38 38 0 00-8.76 7.71 121.48 121.48 0 01-12.31 10c-18.85 10.89-39 16.3-60.21 20.25-1.61.15-3.23.31-4.85.44-11.13.87-22.8 1.56-34.22 2.34l-43.75 2.91 5.37-136.81h-.45a3.72 3.72 0 00-2.38-2.61c-8.34-3.1-15.61-6.82-24.69-7.39s-18.11 1.26-26.65 4.39a3.86 3.86 0 00-2.43 4.56h-.32l.32 141.26-40.9 2.72a3.66 3.66 0 00-2.94.34 3.92 3.92 0 00-1.41 1.55 3.3 3.3 0 00-.26.39l-.07.08c-2 2.47-2.68 5.57-2.85 8.81a65.19 65.19 0 006 43.71 3.37 3.37 0 001.78 1.64 4.12 4.12 0 001.19 1 3.93 3.93 0 003.75 0 2.72 2.72 0 001.68-.48l1-.77 33.07-9.26v16.66l.17 103.82.09 51.91v26c0 9 .23 18 .82 27.19 1.19 18.25 3.55 36.86 9.16 55.52a140.41 140.41 0 0011.48 27.64 112.19 112.19 0 008.6 13.1 95 95 0 0010.89 11.86 85.07 85.07 0 0013 9.8c2.28 1.5 4.75 2.66 7.13 4 2.49 1.09 4.86 2.29 7.5 3.19a79.32 79.32 0 0032.32 5 83 83 0 0015.84-2.31 90.68 90.68 0 0014.96-5.04 111.14 111.14 0 0026-15.47A124.13 124.13 0 00776.28 735c1.36 1.34 2.74 2.66 4.16 3.94a102.56 102.56 0 0030.29 19 82.11 82.11 0 0036.71 6 69 69 0 0035.79-13.21 71.16 71.16 0 005.6-4.62l.77 6.2 4.08 30.92c5.63 41.22 11.81 82.38 18.86 123.45q4.35 25.18 9.1 50.34 3.93 34.88 10.2 69.42a3 3 0 002.33 2.59c2 1.32 5.18.58 5.06-2.26a2.81 2.81 0 00.91-2.38q-1.27-22.17-3.17-44.29c-.34-25.31-1.18-50.57-2.26-75.8-1.81-41.63-4.49-83.16-7.72-124.63l-2.56-31.1-1.74-19.27a174.55 174.55 0 0046.25 37 143.15 143.15 0 0032.22 12.8 126.14 126.14 0 0017.18 3.17 155.09 155.09 0 0017.13 1.12c22.7.33 82.71-6.14 103.69-16.85 1-.28 10.57-6.31 14.06-9.24a159.48 159.48 0 0034.94-34.64c2.79-3.76 5.39-7.63 7.87-11.57.55.95 1.1 1.9 1.67 2.84a127.58 127.58 0 0021.15 26.11 117.59 117.59 0 0013.08 10.82 107.45 107.45 0 0014.73 9 99.58 99.58 0 0034.17 10.42 83.32 83.32 0 0037.4-4.35 47.46 47.46 0 004.46-1.76c1.46-.63 3-1.24 4.32-2l4.14-2.16 4-2.44a93.19 93.19 0 0014.75-11.72 104.22 104.22 0 0020.65-29.78 131.48 131.48 0 006.31-16c1.77-5.34 3.21-10.68 4.4-16a250.77 250.77 0 004.89-31.5c1-10.37 1.47-20.58 1.73-30.66l.38-29.3q.14-9.78.42-19.56c4.88-9 30.18 2 40.16 6.77 2.48 1.59 4.92 3.27 7.32 5a262.08 262.08 0 0127 24.84c4.26 4.57 8.38 9.29 12.23 14.17l2.82 3.7 2.81 3.89c1.92 2.54 3.68 5.27 5.5 7.94 14.38 21.62 26.31 46.33 40.11 71.12a388.28 388.28 0 0022.88 36.86 238.37 238.37 0 0028.81 33.69 253.38 253.38 0 0034.06 27.84 274.93 274.93 0 0038 21.44 285.94 285.94 0 0040.55 15.12 282.31 282.31 0 0042.14 8.56 270 270 0 0038.73 2.08 3.08 3.08 0 002.14.85c43.36.76 85-12.11 122.82-32.78a2.83 2.83 0 001.65-2.91c.66-2.57-2.29-5.9-5.56-4.23zm-472.14-337.3l.07.05-2.43 2c.78-.69 1.57-1.37 2.36-2.05zm-333.37 193.74c0 1.26-.14 2.27-.22 3.35s-.15 2.15-.33 3.25a97.9 97.9 0 01-2.55 13.28 127.54 127.54 0 01-9.9 25.9 117 117 0 01-7 11.66 82.69 82.69 0 01-8.08 9.92l.08.07c-10.12 6.91-21.75 9.56-33.49 12.12-8.64 2.27-22.24.51-23.4.34A118.42 118.42 0 01981.3 744a151.11 151.11 0 01-43.64-38 165.86 165.86 0 01-19.44-31.31 146.45 146.45 0 00-.62-19.78c-.3-2.79-.59-5.57-1.09-8.33l-.66-4.15-.81-4c-1.06-5.34-2.34-10.56-3.68-15.73s-2.84-10.29-4.36-15.34c-.4-2.2-.83-4.4-1.25-6.61.1-.62.15-1.25.26-1.87a92.72 92.72 0 0124.32-48.2l2.39-2.47 2.19-2 2.34-1.9 2.47-1.76a55.79 55.79 0 0111.07-5.68 79.25 79.25 0 0125.9-4.87c18.13-.52 37.25 4 52.67 12.66a94.22 94.22 0 0121 16.79 118.22 118.22 0 0116.64 22.13c9.4 16.23 15.44 34.73 18.4 53.76a183.19 183.19 0 012.13 28.86c-.03 2.41-.07 4.8-.19 7.24zm284.35-156.15l.57-.66.16.11z" transform="translate(-36 -90.29)" fill="url(#e)"/></svg>